<mxfile host="app.diagrams.net" modified="2021-01-07T08:50:26.497Z" agent="5.0 (X11; Linux x86_64) AppleWebKit/537.36 (KHTML, like Gecko) Chrome/87.0.4280.66 Safari/537.36" etag="3HTrDKElcYSypLDgZcwe" version="14.1.8" type="github">
  <diagram id="Mo-zgev8_H7BjUxEDvgf" name="Page-1">
    <mxGraphModel dx="1105" dy="-194" grid="1" gridSize="10" guides="1" tooltips="1" connect="1" arrows="1" fold="1" page="1" pageScale="1" pageWidth="250" pageHeight="500" math="0" shadow="0">
      <root>
        <mxCell id="0" />
        <mxCell id="1" parent="0" />
        <mxCell id="FhQG8izk2q5nAjOMl3dq-10" value=":DataGeneration&#xa;Controller" style="shape=umlLifeline;perimeter=lifelinePerimeter;container=1;collapsible=0;recursiveResize=0;rounded=0;shadow=0;strokeWidth=1;" vertex="1" parent="1">
          <mxGeometry x="536" y="1140" width="100" height="250" as="geometry" />
        </mxCell>
        <mxCell id="FhQG8izk2q5nAjOMl3dq-11" value="" style="points=[];perimeter=orthogonalPerimeter;rounded=0;shadow=0;strokeWidth=1;" vertex="1" parent="FhQG8izk2q5nAjOMl3dq-10">
          <mxGeometry x="45" y="70" width="10" height="150" as="geometry" />
        </mxCell>
        <mxCell id="FhQG8izk2q5nAjOMl3dq-12" value="dispatch" style="verticalAlign=bottom;startArrow=oval;endArrow=block;startSize=8;shadow=0;strokeWidth=1;" edge="1" parent="FhQG8izk2q5nAjOMl3dq-10" target="FhQG8izk2q5nAjOMl3dq-11">
          <mxGeometry relative="1" as="geometry">
            <mxPoint x="-15" y="70" as="sourcePoint" />
          </mxGeometry>
        </mxCell>
        <mxCell id="FhQG8izk2q5nAjOMl3dq-13" value=":DemoTransaction&#xa;Generator" style="shape=umlLifeline;perimeter=lifelinePerimeter;container=1;collapsible=0;recursiveResize=0;rounded=0;shadow=0;strokeWidth=1;" vertex="1" parent="1">
          <mxGeometry x="716" y="1140" width="100" height="250" as="geometry" />
        </mxCell>
        <mxCell id="FhQG8izk2q5nAjOMl3dq-14" value="" style="points=[];perimeter=orthogonalPerimeter;rounded=0;shadow=0;strokeWidth=1;" vertex="1" parent="FhQG8izk2q5nAjOMl3dq-13">
          <mxGeometry x="45" y="80" width="10" height="140" as="geometry" />
        </mxCell>
        <mxCell id="FhQG8izk2q5nAjOMl3dq-15" value="cancel" style="verticalAlign=bottom;endArrow=block;entryX=0;entryY=0;shadow=0;strokeWidth=1;" edge="1" parent="1" source="FhQG8izk2q5nAjOMl3dq-11" target="FhQG8izk2q5nAjOMl3dq-14">
          <mxGeometry relative="1" as="geometry">
            <mxPoint x="691" y="1220" as="sourcePoint" />
          </mxGeometry>
        </mxCell>
        <mxCell id="FhQG8izk2q5nAjOMl3dq-16" value="&lt;font style=&quot;font-size: 30px&quot;&gt;Stop Data Generation(&lt;/font&gt;&lt;font style=&quot;font-size: 20px&quot;&gt;/api/stopTransactionGeneration&lt;/font&gt;&lt;font style=&quot;font-size: 30px&quot;&gt;)&lt;/font&gt;" style="text;html=1;strokeColor=none;fillColor=none;align=center;verticalAlign=middle;whiteSpace=wrap;rounded=0;" vertex="1" parent="1">
          <mxGeometry x="440" y="1060" width="666" height="50" as="geometry" />
        </mxCell>
        <mxCell id="FhQG8izk2q5nAjOMl3dq-17" value=":Transaction&#xa;Generator" style="shape=umlLifeline;perimeter=lifelinePerimeter;container=1;collapsible=0;recursiveResize=0;rounded=0;shadow=0;strokeWidth=1;" vertex="1" parent="1">
          <mxGeometry x="891" y="1140" width="100" height="250" as="geometry" />
        </mxCell>
        <mxCell id="FhQG8izk2q5nAjOMl3dq-18" value="" style="points=[];perimeter=orthogonalPerimeter;rounded=0;shadow=0;strokeWidth=1;" vertex="1" parent="FhQG8izk2q5nAjOMl3dq-17">
          <mxGeometry x="45" y="80" width="10" height="140" as="geometry" />
        </mxCell>
        <mxCell id="FhQG8izk2q5nAjOMl3dq-19" value="cancel" style="verticalAlign=bottom;endArrow=block;entryX=0;entryY=0;shadow=0;strokeWidth=1;" edge="1" parent="1">
          <mxGeometry relative="1" as="geometry">
            <mxPoint x="771" y="1240" as="sourcePoint" />
            <mxPoint x="941" y="1240" as="targetPoint" />
          </mxGeometry>
        </mxCell>
      </root>
    </mxGraphModel>
  </diagram>
</mxfile>
